<svg version="1.1" id="Layer_1" xmlns="http://www.w3.org/2000/svg" xmlns:xlink="http://www.w3.org/1999/xlink" x="0px" y="0px"
	 width="100%" viewBox="0 0 178 95" enable-background="new 0 0 178 95" xml:space="preserve">
<path fill="#000000" opacity="1.000000" stroke="none" 
	d="
M114.000000,96.000000 
	C76.000008,96.000000 38.500008,96.000000 1.000010,96.000000 
	C1.000007,64.333344 1.000007,32.666683 1.000003,1.000019 
	C60.333317,1.000012 119.666634,1.000012 178.999969,1.000006 
	C178.999969,32.666645 178.999969,64.333290 178.999985,95.999969 
	C157.500000,96.000000 136.000000,96.000000 114.000000,96.000000 
M151.110886,59.132233 
	C143.513092,59.132233 135.915298,59.132233 127.998070,59.132233 
	C127.998070,63.781158 127.850357,67.929482 128.042435,72.062019 
	C128.211502,75.699341 126.176529,76.046806 123.310478,76.053871 
	C120.517021,76.060760 118.832565,75.425110 118.967194,72.183113 
	C119.119179,68.523331 119.000237,64.852325 119.000099,61.186199 
	C118.999771,51.907509 119.000000,42.628819 119.000000,33.358154 
	C116.020973,33.358154 113.640877,33.358154 110.893005,33.358154 
	C110.893005,39.314880 110.893005,44.922928 110.893005,50.692978 
	C107.125465,50.692978 103.742935,50.692978 99.828880,50.692978 
	C99.828880,44.655525 99.828880,38.910233 99.828880,33.242035 
	C97.348686,33.242035 95.407257,33.242035 93.299332,33.242035 
	C93.299332,48.546638 93.299332,63.610451 93.299332,78.631622 
	C95.653366,78.631622 97.701302,78.631622 100.121689,78.631622 
	C100.121689,72.665855 100.121689,67.058350 100.121689,61.314373 
	C103.892708,61.314373 107.276100,61.314373 110.597832,61.314373 
	C112.400734,68.632065 107.105431,78.938461 119.505249,80.925545 
	C122.428474,81.393982 125.771774,81.737381 128.413910,80.762177 
	C131.060959,79.785164 133.708237,77.468185 135.171188,75.028427 
	C136.445847,72.902641 136.070053,69.787201 136.423538,67.109055 
	C136.706680,67.126808 136.989822,67.144554 137.272964,67.162300 
	C137.272964,71.728294 137.272964,76.294281 137.272964,80.720444 
	C139.731766,80.720444 141.666199,80.720444 144.131042,80.720444 
	C144.131042,75.715469 144.131042,70.976044 144.131042,66.227066 
	C147.074844,66.034950 149.479507,65.878021 151.827484,65.724792 
	C151.827484,63.380310 151.827484,61.554298 151.110886,59.132233 
M36.800301,44.156399 
	C39.738838,44.156399 42.677376,44.156399 45.655571,44.156399 
	C45.655571,40.379745 45.655571,37.331718 45.655571,34.402122 
	C39.587082,34.402122 33.871265,34.402122 28.263418,34.402122 
	C28.263418,49.730488 28.263418,64.655357 28.263418,79.676544 
	C30.914942,79.676544 33.295517,79.676544 36.205307,79.676544 
	C36.205307,73.965546 36.205307,68.563087 36.205307,62.840961 
	C39.353958,62.840961 41.967247,62.840961 44.688118,62.840961 
	C44.688118,59.763733 44.688118,57.045528 44.688118,53.797722 
	C41.655838,53.797722 38.932384,53.797722 36.151791,53.797722 
	C36.151791,50.448864 36.151791,47.634609 36.800301,44.156399 
M127.012436,45.569702 
	C127.107162,45.278805 127.169334,44.970436 127.311676,44.705082 
	C127.373878,44.589138 127.708656,44.472103 127.736465,44.505966 
	C130.307556,47.637280 133.415619,50.489677 135.274460,54.002724 
	C137.578796,58.357742 140.730362,58.445766 144.745880,57.676079 
	C144.745880,49.461594 144.745880,41.393871 144.745880,33.283890 
	C142.763687,33.283890 141.039581,33.283890 138.783813,33.283890 
	C138.783813,38.206985 138.783813,42.866356 138.783813,48.569733 
	C135.651611,44.192368 133.188202,40.805317 130.784958,37.376095 
	C128.145782,33.610207 124.954704,31.520781 120.318329,33.587170 
	C120.318329,46.041275 120.318329,58.426590 120.318329,70.640762 
	C122.698677,70.640762 124.753860,70.640762 127.001411,70.640762 
	C127.001411,62.316944 127.001411,54.350555 127.012436,45.569702 
M86.086143,44.487904 
	C86.088577,40.127079 82.450790,39.486317 79.620499,39.187649 
	C75.965248,38.801926 72.601585,40.242176 71.401115,44.655746 
	C70.336105,36.701080 66.990631,33.142056 60.672760,33.002865 
	C56.421528,32.909206 50.977512,37.020252 50.051277,41.023670 
	C48.782150,46.509167 51.231243,52.972118 55.221272,54.666855 
	C61.716805,57.425793 66.606003,55.810604 70.638626,49.573608 
	C73.724159,55.162334 77.080460,57.116539 81.392174,55.834866 
	C85.462357,54.624992 87.276505,50.902008 86.086143,44.487904 
M52.000046,64.356079 
	C51.910774,70.653503 53.675026,76.320503 59.877209,78.759407 
	C66.011154,81.171478 72.880684,81.453041 78.160744,77.045731 
	C84.173813,72.026581 81.653259,64.730392 81.884033,58.279434 
	C71.589622,58.279434 61.994316,58.279434 52.000027,58.279434 
	C52.000027,60.182404 52.000027,61.810242 52.000046,64.356079 
z"/>
<path fill="#EE4723" opacity="1.000000" stroke="none" 
	d="
M151.469177,59.430260 
	C151.827484,61.554298 151.827484,63.380310 151.827484,65.724792 
	C149.479507,65.878021 147.074844,66.034950 144.131042,66.227066 
	C144.131042,70.976044 144.131042,75.715469 144.131042,80.720444 
	C141.666199,80.720444 139.731766,80.720444 137.272964,80.720444 
	C137.272964,76.294281 137.272964,71.728294 137.272964,67.162300 
	C136.989822,67.144554 136.706680,67.126808 136.423538,67.109055 
	C136.070053,69.787201 136.445847,72.902641 135.171188,75.028427 
	C133.708237,77.468185 131.060959,79.785164 128.413910,80.762177 
	C125.771774,81.737381 122.428474,81.393982 119.505249,80.925545 
	C107.105431,78.938461 112.400734,68.632065 110.597832,61.314373 
	C107.276100,61.314373 103.892708,61.314373 100.121689,61.314373 
	C100.121689,67.058350 100.121689,72.665855 100.121689,78.631622 
	C97.701302,78.631622 95.653366,78.631622 93.299332,78.631622 
	C93.299332,63.610451 93.299332,48.546638 93.299332,33.242035 
	C95.407257,33.242035 97.348686,33.242035 99.828880,33.242035 
	C99.828880,38.910233 99.828880,44.655525 99.828880,50.692978 
	C103.742935,50.692978 107.125465,50.692978 110.893005,50.692978 
	C110.893005,44.922928 110.893005,39.314880 110.893005,33.358154 
	C113.640877,33.358154 116.020973,33.358154 119.000000,33.358154 
	C119.000000,42.628819 118.999771,51.907509 119.000099,61.186199 
	C119.000237,64.852325 119.119179,68.523331 118.967194,72.183113 
	C118.832565,75.425110 120.517021,76.060760 123.310478,76.053871 
	C126.176529,76.046806 128.211502,75.699341 128.042435,72.062019 
	C127.850357,67.929482 127.998070,63.781158 127.998070,59.132233 
	C135.915298,59.132233 143.513092,59.132233 151.469177,59.430260 
z"/>
<path fill="#EE4723" opacity="1.000000" stroke="none" 
	d="
M36.476044,44.488377 
	C36.151791,47.634609 36.151791,50.448864 36.151791,53.797722 
	C38.932384,53.797722 41.655838,53.797722 44.688118,53.797722 
	C44.688118,57.045528 44.688118,59.763733 44.688118,62.840961 
	C41.967247,62.840961 39.353958,62.840961 36.205307,62.840961 
	C36.205307,68.563087 36.205307,73.965546 36.205307,79.676544 
	C33.295517,79.676544 30.914942,79.676544 28.263418,79.676544 
	C28.263418,64.655357 28.263418,49.730488 28.263418,34.402122 
	C33.871265,34.402122 39.587082,34.402122 45.655571,34.402122 
	C45.655571,37.331718 45.655571,40.379745 45.655571,44.156399 
	C42.677376,44.156399 39.738838,44.156399 36.476044,44.488377 
z"/>
<path fill="#D0DC26" opacity="1.000000" stroke="none" 
	d="
M127.006927,45.976936 
	C127.001411,54.350555 127.001411,62.316944 127.001411,70.640762 
	C124.753860,70.640762 122.698677,70.640762 120.318329,70.640762 
	C120.318329,58.426590 120.318329,46.041275 120.318329,33.587170 
	C124.954704,31.520781 128.145782,33.610207 130.784958,37.376095 
	C133.188202,40.805317 135.651611,44.192368 138.783813,48.569733 
	C138.783813,42.866356 138.783813,38.206985 138.783813,33.283890 
	C141.039581,33.283890 142.763687,33.283890 144.745880,33.283890 
	C144.745880,41.393871 144.745880,49.461594 144.745880,57.676079 
	C140.730362,58.445766 137.578796,58.357742 135.274460,54.002724 
	C133.415619,50.489677 130.307556,47.637280 127.736465,44.505966 
	C127.708656,44.472103 127.373878,44.589138 127.311676,44.705082 
	C127.169334,44.970436 127.107162,45.278805 127.006927,45.976936 
z"/>
<path fill="#D0DC26" opacity="1.000000" stroke="none" 
	d="
M86.351410,44.800541 
	C87.276505,50.902008 85.462357,54.624992 81.392174,55.834866 
	C77.080460,57.116539 73.724159,55.162334 70.638626,49.573608 
	C66.606003,55.810604 61.716805,57.425793 55.221272,54.666855 
	C51.231243,52.972118 48.782150,46.509167 50.051277,41.023670 
	C50.977512,37.020252 56.421528,32.909206 60.672760,33.002865 
	C66.990631,33.142056 70.336105,36.701080 71.401115,44.655746 
	C72.601585,40.242176 75.965248,38.801926 79.620499,39.187649 
	C82.450790,39.486317 86.088577,40.127079 86.351410,44.800541 
M59.204384,38.965725 
	C55.433765,40.206890 55.383610,43.508503 56.195648,46.193424 
	C56.817398,48.249176 59.135071,49.792004 60.698429,51.562973 
	C61.394299,51.427559 62.090164,51.292145 62.786030,51.156731 
	C63.518127,48.262657 64.900932,45.323471 64.704742,42.493763 
	C64.608269,41.102318 61.587616,39.913612 59.204384,38.965725 
M76.005524,46.722725 
	C76.750717,48.594929 77.495911,50.467133 78.390839,52.715523 
	C83.399612,48.078785 83.253838,46.031143 78.430023,42.959793 
	C77.644989,43.939358 76.842834,44.940281 76.005524,46.722725 
z"/>
<path fill="#EE4723" opacity="1.000000" stroke="none" 
	d="
M52.000038,63.897079 
	C52.000027,61.810242 52.000027,60.182404 52.000027,58.279434 
	C61.994316,58.279434 71.589622,58.279434 81.884033,58.279434 
	C81.653259,64.730392 84.173813,72.026581 78.160744,77.045731 
	C72.880684,81.453041 66.011154,81.171478 59.877209,78.759407 
	C53.675026,76.320503 51.910774,70.653503 52.000038,63.897079 
M60.490791,70.943130 
	C64.088783,73.873352 68.409058,74.026466 72.021385,72.062492 
	C74.210480,70.872322 75.183456,67.445343 77.181747,64.259781 
	C70.092140,64.259781 64.651451,64.259781 58.587208,64.259781 
	C59.144558,66.517021 59.603210,68.374535 60.490791,70.943130 
z"/>
<path fill="#000000" opacity="1.000000" stroke="none" 
	d="
M59.547325,38.799442 
	C61.587616,39.913612 64.608269,41.102318 64.704742,42.493763 
	C64.900932,45.323471 63.518127,48.262657 62.786030,51.156731 
	C62.090164,51.292145 61.394299,51.427559 60.698429,51.562973 
	C59.135071,49.792004 56.817398,48.249176 56.195648,46.193424 
	C55.383610,43.508503 55.433765,40.206890 59.547325,38.799442 
z"/>
<path fill="#000000" opacity="1.000000" stroke="none" 
	d="
M76.023102,46.331966 
	C76.842834,44.940281 77.644989,43.939358 78.430023,42.959793 
	C83.253838,46.031143 83.399612,48.078785 78.390839,52.715523 
	C77.495911,50.467133 76.750717,48.594929 76.023102,46.331966 
z"/>
<path fill="#000000" opacity="1.000000" stroke="none" 
	d="
M60.276329,70.587585 
	C59.603210,68.374535 59.144558,66.517021 58.587208,64.259781 
	C64.651451,64.259781 70.092140,64.259781 77.181747,64.259781 
	C75.183456,67.445343 74.210480,70.872322 72.021385,72.062492 
	C68.409058,74.026466 64.088783,73.873352 60.276329,70.587585 
z"/>
</svg>